<?xml version="1.0" encoding="UTF-8"?>
<svg xmlns="http://www.w3.org/2000/svg" xmlns:xlink="http://www.w3.org/1999/xlink" width="26pt" height="30pt" viewBox="0 0 26 30" version="1.1">
<g id="surface1">
<path style=" stroke:none;fill-rule:evenodd;fill:rgb(23.921569%,45.098039%,72.54902%);fill-opacity:1;" d="M 12.867188 24.171875 L 23.515625 24.171875 C 25.945312 24.171875 25.96875 21.648438 25.722656 20.402344 C 25.585938 19.566406 24.128906 19.578125 23.96875 20.402344 L 23.96875 21.375 C 23.96875 21.820312 23.597656 22.183594 23.140625 22.183594 L 2.730469 22.183594 C 2.273438 22.183594 1.902344 21.820312 1.902344 21.375 L 1.902344 20.402344 C 1.742188 19.578125 0.285156 19.566406 0.148438 20.402344 C -0.0976562 21.648438 -0.0742188 24.171875 2.355469 24.171875 Z M 5.339844 0.0078125 L 21.757812 0.0078125 C 22.910156 0.0078125 23.855469 0.980469 23.855469 2.175781 L 23.855469 3.210938 C 23.855469 4.671875 21.828125 4.667969 21.828125 3.21875 L 21.828125 2.65625 C 21.828125 2.292969 21.523438 1.996094 21.152344 1.996094 L 4.703125 1.996094 C 4.328125 1.996094 4.027344 2.292969 4.027344 2.65625 L 4.027344 3.210938 C 4.027344 4.664062 2.09375 4.65625 2.09375 3.242188 L 2.09375 2.175781 C 2.097656 0.984375 3.039062 0.0078125 4.191406 0.0078125 Z M 5.339844 0.0078125 "/>
<path style=" stroke:none;fill-rule:evenodd;fill:rgb(11.372549%,11.372549%,10.588235%);fill-opacity:1;" d="M 23.441406 11.910156 C 24.589844 12.414062 25.339844 13.519531 25.363281 14.75 C 25.363281 16.492188 23.800781 17.921875 21.894531 17.921875 L 16.546875 17.921875 C 16.066406 17.933594 15.660156 17.566406 15.640625 17.097656 L 15.640625 7.160156 C 15.640625 6.679688 16.039062 6.289062 16.53125 6.289062 L 20.984375 6.289062 C 22.351562 6.285156 23.585938 7.082031 24.121094 8.304688 C 24.65625 9.53125 24.386719 10.953125 23.441406 11.910156 M 19.449219 11.101562 L 21.148438 11.101562 L 21.148438 11.085938 C 21.933594 10.964844 22.515625 10.304688 22.519531 9.527344 C 22.515625 8.65625 21.792969 7.953125 20.902344 7.949219 L 17.484375 7.949219 L 17.484375 16.195312 L 21.820312 16.195312 C 22.425781 16.210938 23 15.90625 23.308594 15.394531 C 23.617188 14.882812 23.617188 14.246094 23.308594 13.734375 C 23 13.226562 22.425781 12.917969 21.820312 12.9375 L 19.449219 12.9375 C 18.933594 12.9375 18.511719 12.527344 18.511719 12.023438 C 18.511719 11.515625 18.933594 11.109375 19.449219 11.109375 "/>
<path style=" stroke:none;fill-rule:nonzero;fill:rgb(11.372549%,11.372549%,10.588235%);fill-opacity:1;" d="M 6.019531 27.222656 C 6.019531 27.066406 6.144531 26.941406 6.304688 26.941406 C 6.464844 26.941406 6.59375 27.066406 6.59375 27.222656 L 6.59375 28.734375 C 6.589844 29.425781 6.015625 29.988281 5.308594 29.992188 C 4.597656 29.988281 4.023438 29.429688 4.019531 28.734375 L 4.019531 27.222656 C 4.011719 27.117188 4.066406 27.015625 4.15625 26.960938 C 4.25 26.90625 4.363281 26.90625 4.457031 26.960938 C 4.546875 27.015625 4.601562 27.117188 4.59375 27.222656 L 4.59375 28.734375 C 4.597656 29.121094 4.914062 29.429688 5.308594 29.433594 C 5.703125 29.429688 6.023438 29.121094 6.023438 28.734375 Z M 6.019531 27.222656 "/>
<path style=" stroke:none;fill-rule:nonzero;fill:rgb(11.372549%,11.372549%,10.588235%);fill-opacity:1;" d="M 8.734375 29.429688 C 8.890625 29.429688 9.019531 29.558594 9.019531 29.710938 C 9.019531 29.867188 8.890625 29.992188 8.734375 29.992188 L 7.9375 29.992188 C 7.34375 29.992188 6.859375 29.523438 6.859375 28.941406 L 6.859375 27.222656 C 6.859375 27.066406 6.988281 26.941406 7.144531 26.941406 C 7.304688 26.941406 7.429688 27.066406 7.429688 27.222656 L 7.429688 28.9375 C 7.429688 29.210938 7.65625 29.433594 7.9375 29.433594 L 8.734375 29.433594 Z M 8.734375 29.429688 "/>
<path style=" stroke:none;fill-rule:nonzero;fill:rgb(11.372549%,11.372549%,10.588235%);fill-opacity:1;" d="M 14.789062 16.929688 C 14.847656 17.3125 14.683594 17.691406 14.371094 17.921875 C 14.054688 18.148438 13.636719 18.195312 13.277344 18.035156 C 12.921875 17.871094 12.683594 17.535156 12.65625 17.152344 L 11.773438 9.253906 L 8.664062 16.976562 L 8.664062 17.070312 C 8.59375 17.1875 8.503906 17.289062 8.394531 17.371094 L 8.378906 17.382812 C 8.320312 17.433594 8.257812 17.476562 8.191406 17.511719 L 8.171875 17.523438 L 8.152344 17.53125 L 8.046875 17.53125 C 7.945312 17.566406 7.839844 17.585938 7.734375 17.589844 L 7.65625 17.589844 C 7.535156 17.585938 7.417969 17.5625 7.304688 17.519531 L 7.214844 17.519531 L 7.199219 17.507812 L 7.179688 17.5 L 7.171875 17.5 C 7.109375 17.46875 7.054688 17.429688 7.003906 17.390625 L 6.96875 17.359375 L 6.941406 17.332031 L 6.875 17.316406 L 6.84375 17.28125 C 6.800781 17.230469 6.761719 17.175781 6.730469 17.117188 L 6.730469 17.105469 L 6.71875 17.089844 L 6.710938 17.070312 L 6.710938 16.996094 L 3.542969 9.253906 L 2.664062 17.152344 C 2.601562 17.726562 2.074219 18.144531 1.484375 18.082031 C 0.894531 18.019531 0.46875 17.503906 0.53125 16.929688 L 1.570312 7.621094 C 1.59375 7.398438 1.660156 7.1875 1.769531 6.992188 C 2.039062 6.5 2.535156 6.164062 3.101562 6.089844 L 3.160156 6.089844 C 3.25 6.082031 3.339844 6.082031 3.429688 6.089844 C 3.539062 6.09375 3.648438 6.109375 3.753906 6.132812 C 4.324219 6.257812 4.792969 6.652344 5.003906 7.183594 L 7.660156 13.742188 L 10.3125 7.164062 C 10.570312 6.527344 11.183594 6.097656 11.886719 6.066406 C 11.976562 6.0625 12.066406 6.0625 12.15625 6.066406 L 12.214844 6.066406 C 12.78125 6.144531 13.277344 6.480469 13.546875 6.972656 C 13.601562 7.070312 13.644531 7.171875 13.679688 7.273438 C 13.714844 7.382812 13.734375 7.492188 13.746094 7.605469 Z M 14.789062 16.929688 "/>
<path style=" stroke:none;fill-rule:nonzero;fill:rgb(11.372549%,11.372549%,10.588235%);fill-opacity:1;" d="M 3.910156 29.679688 C 3.929688 29.78125 3.886719 29.886719 3.804688 29.953125 C 3.71875 30.015625 3.605469 30.027344 3.507812 29.984375 C 3.410156 29.941406 3.347656 29.851562 3.339844 29.746094 L 3.09375 27.730469 L 2.21875 29.707031 C 2.15625 29.851562 1.988281 29.914062 1.84375 29.855469 C 1.773438 29.828125 1.722656 29.773438 1.695312 29.707031 L 0.816406 27.730469 L 0.570312 29.746094 C 0.566406 29.851562 0.5 29.941406 0.402344 29.984375 C 0.304688 30.027344 0.191406 30.015625 0.109375 29.953125 C 0.0234375 29.886719 -0.015625 29.78125 0 29.679688 L 0.289062 27.339844 C 0.308594 27.191406 0.402344 27.058594 0.542969 26.992188 C 0.558594 26.980469 0.578125 26.972656 0.597656 26.96875 L 0.621094 26.96875 C 0.648438 26.957031 0.675781 26.953125 0.703125 26.949219 C 0.851562 26.929688 0.996094 26.972656 1.105469 27.074219 C 1.125 27.09375 1.144531 27.113281 1.160156 27.136719 C 1.175781 27.152344 1.183594 27.171875 1.195312 27.191406 C 1.203125 27.199219 1.207031 27.210938 1.210938 27.222656 L 1.957031 28.902344 L 2.699219 27.207031 C 2.761719 27.070312 2.886719 26.972656 3.035156 26.941406 C 3.0625 26.9375 3.09375 26.933594 3.121094 26.929688 L 3.207031 26.929688 C 3.355469 26.945312 3.488281 27.027344 3.566406 27.152344 C 3.582031 27.179688 3.59375 27.207031 3.605469 27.234375 C 3.613281 27.25 3.617188 27.269531 3.621094 27.289062 C 3.621094 27.300781 3.621094 27.3125 3.621094 27.324219 Z M 3.910156 29.679688 "/>
<path style=" stroke:none;fill-rule:nonzero;fill:rgb(11.372549%,11.372549%,10.588235%);fill-opacity:1;" d="M 9.984375 29.710938 C 9.984375 29.867188 9.855469 29.992188 9.695312 29.992188 C 9.535156 29.992188 9.410156 29.867188 9.410156 29.710938 L 9.410156 27.5 L 8.59375 27.5 C 8.433594 27.5 8.304688 27.375 8.304688 27.222656 C 8.304688 27.066406 8.433594 26.941406 8.59375 26.941406 L 10.796875 26.941406 C 10.957031 26.941406 11.085938 27.066406 11.085938 27.222656 C 11.085938 27.375 10.957031 27.5 10.796875 27.5 L 9.984375 27.5 Z M 9.984375 29.710938 "/>
<path style=" stroke:none;fill-rule:nonzero;fill:rgb(11.372549%,11.372549%,10.588235%);fill-opacity:1;" d="M 11.773438 29.710938 C 11.773438 29.867188 11.644531 29.992188 11.484375 29.992188 C 11.328125 29.992188 11.199219 29.867188 11.199219 29.710938 L 11.199219 27.222656 C 11.199219 27.066406 11.328125 26.941406 11.484375 26.941406 C 11.644531 26.941406 11.773438 27.066406 11.773438 27.222656 Z M 11.773438 29.710938 "/>
<path style=" stroke:none;fill-rule:nonzero;fill:rgb(11.372549%,11.372549%,10.588235%);fill-opacity:1;" d="M 17.648438 29.679688 C 17.660156 29.828125 17.550781 29.960938 17.398438 29.976562 C 17.246094 29.996094 17.109375 29.894531 17.082031 29.75 L 16.980469 28.957031 L 15.992188 28.957031 C 15.886719 28.964844 15.78125 28.914062 15.726562 28.824219 C 15.671875 28.734375 15.671875 28.621094 15.726562 28.53125 C 15.78125 28.441406 15.886719 28.390625 15.992188 28.398438 L 16.914062 28.398438 L 16.890625 28.191406 C 16.890625 28.191406 16.890625 28.179688 16.890625 28.171875 C 16.882812 28.125 16.871094 28.074219 16.855469 28.027344 C 16.839844 27.976562 16.820312 27.929688 16.796875 27.882812 C 16.695312 27.65625 16.46875 27.511719 16.214844 27.503906 C 16.167969 27.503906 16.117188 27.511719 16.070312 27.519531 C 16.027344 27.53125 15.984375 27.546875 15.941406 27.570312 C 15.710938 27.699219 15.5625 27.933594 15.542969 28.191406 L 15.367188 29.75 C 15.347656 29.902344 15.207031 30.011719 15.050781 29.996094 C 14.894531 29.976562 14.78125 29.839844 14.796875 29.6875 L 14.976562 28.128906 C 15.015625 27.683594 15.28125 27.285156 15.683594 27.070312 C 15.765625 27.03125 15.851562 27 15.9375 26.976562 C 16.03125 26.957031 16.121094 26.945312 16.214844 26.945312 C 16.6875 26.949219 17.113281 27.21875 17.308594 27.632812 C 17.347656 27.710938 17.378906 27.789062 17.40625 27.871094 C 17.425781 27.945312 17.445312 28.023438 17.453125 28.101562 C 17.457031 28.109375 17.457031 28.117188 17.453125 28.125 Z M 17.648438 29.679688 "/>
<path style=" stroke:none;fill-rule:nonzero;fill:rgb(11.372549%,11.372549%,10.588235%);fill-opacity:1;" d="M 18.527344 29.710938 C 18.535156 29.816406 18.480469 29.917969 18.390625 29.972656 C 18.296875 30.027344 18.183594 30.027344 18.089844 29.972656 C 18 29.917969 17.945312 29.816406 17.953125 29.710938 L 17.953125 27.402344 C 17.953125 27.386719 17.953125 27.371094 17.953125 27.355469 C 17.957031 27.324219 17.964844 27.292969 17.976562 27.265625 L 18 27.214844 C 18.050781 27.128906 18.128906 27.066406 18.222656 27.03125 L 18.261719 27.023438 L 18.371094 27.023438 C 18.488281 27.027344 18.597656 27.082031 18.671875 27.175781 L 20.191406 29.074219 L 20.191406 27.222656 C 20.191406 27.066406 20.320312 26.941406 20.476562 26.941406 C 20.636719 26.941406 20.765625 27.066406 20.765625 27.222656 L 20.765625 29.527344 C 20.765625 29.648438 20.710938 29.757812 20.617188 29.832031 C 20.597656 29.847656 20.578125 29.863281 20.554688 29.875 C 20.542969 29.878906 20.53125 29.886719 20.519531 29.890625 L 20.496094 29.898438 C 20.394531 29.933594 20.285156 29.929688 20.191406 29.882812 L 20.152344 29.863281 C 20.132812 29.851562 20.113281 29.839844 20.097656 29.820312 C 20.082031 29.8125 20.070312 29.800781 20.058594 29.785156 L 20.050781 29.773438 L 18.527344 27.867188 Z M 18.527344 29.710938 "/>
<path style=" stroke:none;fill-rule:nonzero;fill:rgb(11.372549%,11.372549%,10.588235%);fill-opacity:1;" d="M 23.003906 29.429688 C 23.164062 29.429688 23.292969 29.558594 23.292969 29.710938 C 23.292969 29.867188 23.164062 29.992188 23.003906 29.992188 L 22.160156 29.992188 C 21.535156 29.992188 21.03125 29.5 21.03125 28.890625 L 21.03125 28.046875 C 21.03125 27.4375 21.539062 26.945312 22.160156 26.945312 L 23.003906 26.945312 C 23.164062 26.945312 23.292969 27.070312 23.292969 27.222656 C 23.292969 27.378906 23.164062 27.503906 23.003906 27.503906 L 22.160156 27.503906 C 22.011719 27.507812 21.871094 27.566406 21.765625 27.667969 C 21.660156 27.769531 21.597656 27.910156 21.597656 28.054688 L 21.597656 28.894531 C 21.597656 29.195312 21.847656 29.441406 22.15625 29.441406 L 23 29.441406 Z M 23.003906 29.429688 "/>
<path style=" stroke:none;fill-rule:nonzero;fill:rgb(11.372549%,11.372549%,10.588235%);fill-opacity:1;" d="M 24.664062 27.5 C 24.460938 27.5 24.269531 27.574219 24.121094 27.710938 C 23.984375 27.839844 23.902344 28.015625 23.902344 28.203125 L 23.902344 28.726562 C 23.902344 28.914062 23.980469 29.09375 24.121094 29.222656 C 24.265625 29.359375 24.460938 29.433594 24.664062 29.433594 C 24.863281 29.433594 25.058594 29.359375 25.203125 29.222656 C 25.34375 29.09375 25.425781 28.914062 25.425781 28.726562 L 25.425781 28.203125 C 25.425781 28.019531 25.34375 27.839844 25.207031 27.710938 C 25.058594 27.574219 24.863281 27.5 24.664062 27.5 M 24.664062 26.941406 C 25.011719 26.9375 25.347656 27.070312 25.601562 27.304688 C 25.855469 27.539062 25.996094 27.863281 26 28.203125 L 26 28.726562 C 25.996094 29.066406 25.855469 29.390625 25.601562 29.621094 C 25.347656 29.859375 25.011719 29.988281 24.664062 29.988281 C 24.3125 29.988281 23.976562 29.859375 23.722656 29.621094 C 23.472656 29.390625 23.328125 29.066406 23.328125 28.726562 L 23.328125 28.203125 C 23.328125 27.863281 23.472656 27.539062 23.722656 27.304688 C 23.976562 27.070312 24.3125 26.9375 24.664062 26.941406 Z M 24.664062 26.941406 "/>
<path style=" stroke:none;fill-rule:nonzero;fill:rgb(11.372549%,11.372549%,10.588235%);fill-opacity:1;" d="M 12.585938 27.5 L 12.585938 29.429688 L 13.691406 29.429688 C 13.789062 29.429688 13.878906 29.394531 13.945312 29.328125 C 14.015625 29.261719 14.050781 29.171875 14.050781 29.078125 C 14.050781 28.992188 14.019531 28.90625 13.957031 28.839844 L 13.945312 28.832031 C 13.878906 28.765625 13.789062 28.726562 13.691406 28.726562 L 13.3125 28.726562 C 13.152344 28.726562 13.023438 28.601562 13.023438 28.445312 C 13.023438 28.289062 13.152344 28.164062 13.3125 28.164062 L 13.441406 28.164062 C 13.523438 28.160156 13.597656 28.125 13.65625 28.066406 C 13.722656 28.007812 13.757812 27.921875 13.757812 27.832031 C 13.757812 27.648438 13.605469 27.503906 13.421875 27.503906 L 12.585938 27.503906 Z M 12.011719 28.449219 L 12.011719 27.230469 C 12.011719 27.195312 12.019531 27.15625 12.035156 27.121094 C 12.050781 27.085938 12.074219 27.054688 12.101562 27.023438 C 12.152344 26.976562 12.21875 26.949219 12.289062 26.945312 L 13.410156 26.945312 C 13.917969 26.945312 14.324219 27.34375 14.324219 27.835938 C 14.324219 28.003906 14.277344 28.167969 14.183594 28.3125 C 14.246094 28.347656 14.304688 28.390625 14.355469 28.4375 L 14.371094 28.457031 C 14.535156 28.625 14.628906 28.847656 14.628906 29.082031 C 14.625 29.585938 14.210938 29.992188 13.695312 29.992188 L 12.296875 29.992188 C 12.140625 29.992188 12.011719 29.867188 12.011719 29.710938 Z M 12.011719 28.449219 "/>
</g>
</svg>
