<?xml version="1.0" encoding="UTF-8"?>
<svg xmlns="http://www.w3.org/2000/svg" height="16">
	<symbol id="visa">
		<title>icon-visa-small</title>
		<rect width="26" height="16" rx="2" ry="2" fill="#224dba"></rect>
		<path d="M7.91,10.88H6.4L5.26,6.35a.74.74,0,0,0-.33-.48A4.51,4.51,0,0,0,3.55,5.4V5.22H6a.65.65,0,0,1,.63.57L7.2,9.05,8.71,5.22h1.47Zm3.11,0H9.59l1.17-5.66h1.43Zm3-4.09a.55.55,0,0,1,.59-.48A2.64,2.64,0,0,1,16,6.57l.25-1.22A3.43,3.43,0,0,0,15,5.09c-1.38,0-2.39.78-2.39,1.87a1.83,1.83,0,0,0,1.21,1.52c.55.26.76.44.72.7a.72.72,0,0,1-.84.57h0a3.41,3.41,0,0,1-1.47-.34l-.25,1.21a3.94,3.94,0,0,0,1.55.31C15,11,16,10.18,16,9c0-1.48-2-1.57-2-2.22h0Zm7,4.09L19.87,5.22H18.66a.63.63,0,0,0-.59.44L16,10.88h1.47l.29-.83h1.81l.16.83ZM18.87,6.74l.42,2.13H18.11Z" fill="#fff"></path>
	</symbol>
	<symbol id="mastercard">
		<title>icon-mastercard-small</title>
		<rect width="26" height="16" rx="2" ry="2" fill="#353a48"></rect>
		<circle cx="10.09" cy="8" r="4.36" fill="#e82c30"></circle>
		<circle id="Ellipse_8_copy" data-name="Ellipse 8 copy" cx="15.91" cy="8" r="4.36" fill="#eca21d"></circle>
		<path id="Rounded_Rectangle_25" data-name="Rounded Rectangle 25" d="M13,4.36h0a4.12,4.12,0,0,0-1.71,5.56,4,4,0,0,0,1.22,1.4l.49.32.05,0a4.1,4.1,0,0,0,1.67-5.53A4.19,4.19,0,0,0,13,4.36" fill="#f36d1e"></path>
	</symbol>
	<symbol id="amex">
		<title>icon-amex-small</title>
		<rect width="26" height="16" rx="2" ry="2" fill="#007ecd"></rect>
		<path d="M16.6,8.86h1.94v.46H17.19v.4H18.5v.41H17.19v.42h1.35V11H16.6Zm5.67.84c.73,0,.79.36.79.7a.67.67,0,0,1-.72.62H21.06v-.46h1c.17,0,.41,0,.41-.21s0-.16-.22-.18l-.4,0c-.66,0-.81-.31-.81-.66a.64.64,0,0,1,.64-.63H23v.47H22c-.21,0-.43,0-.43.18s.11.16.25.17h.41Zm-2.22,0c.72,0,.79.36.79.7a.68.68,0,0,1-.73.62H18.84v-.46h1c.17,0,.41,0,.41-.21s0-.16-.21-.18l-.41,0c-.66,0-.81-.31-.81-.66a.64.64,0,0,1,.64-.63h1.31v.47h-.91c-.21,0-.43,0-.43.18s.11.16.25.17h.41Zm-7-.84H11l-.67.67-.66-.67H7.29V11H9.54l.71-.71L11,11h1.13v-.73h.8a.72.72,0,0,0,.85-.54.86.86,0,0,0,0-.23.64.64,0,0,0-.61-.66Zm-3.8,1.69H7.87v-.42h1.3V9.72H7.87v-.4H9.31l.57.58Zm2.27.25-.85-.89.85-.84Zm1.33-1h-.74V9.32h.74a.27.27,0,0,1,.32.2.27.27,0,0,1-.2.32Zm3.06.19a.57.57,0,0,0,.41-.59.63.63,0,0,0-.65-.59h-1.6V11h.59v-.76h.78a.33.33,0,0,1,.29.35v0l0,.39h.57l0-.44A.44.44,0,0,0,16,10Zm-.51-.22h-.74V9.32h.74a.27.27,0,0,1,.32.21s0,0,0,0-.09.24-.33.24Zm-.27-1.67V6h-.6V8.14ZM9.62,6h2v.46H10.22v.4h1.32v.41H10.22v.42h1.36v.46h-2Zm4.17,1.17a.58.58,0,0,0,.41-.6A.62.62,0,0,0,13.55,6H11.93V8.14h.6V7.38h.78a.32.32,0,0,1,.3.34v.42h.58l0-.44a.43.43,0,0,0-.3-.53Zm-.51-.23h-.75V6.45h.75a.27.27,0,0,1,.32.21s0,0,0,0-.09.25-.34.25ZM8.25,6,7.51,7.43,6.78,6H5.84V8.06L4.8,6H4L2.94,8.14h.63l.24-.48H5l.23.48H6.44V6.55l.8,1.59h.54L8.6,6.57V8.14h.59V6H8.25ZM4,7.19l.36-.75.37.75H4ZM21.28,6V7.47L20.28,6h-.89V8l-1-2h-.79l-.82,1.66h-.39A.44.44,0,0,1,16,7.15h0V7c0-.5.31-.54.71-.54h.37V6H16.3a1.08,1.08,0,0,0-.88,1.26,1.1,1.1,0,0,0,.94.89h.79l.23-.48h1.2l.23.48H20V6.57l1.08,1.57h.81V6Zm-3.67,1.2L18,6.44l.37.75Z" fill="#fff"></path>
	</symbol>
	<symbol id="dinersclub">
		<title>icon-diners-small</title>
		<rect width="26" height="16" rx="2" ry="2" fill="#2183cb"/>
		<path d="M13.76,13.06H12A5,5,0,0,1,7.22,8,4.86,4.86,0,0,1,11.8,3h2a5,5,0,0,1,5,5.05h0v.05A5.08,5.08,0,0,1,13.76,13.06ZM12.14,3.83A4.18,4.18,0,1,0,16.2,8.11V8a4.13,4.13,0,0,0-4.06-4.17Zm.64,7V5.24a2.86,2.86,0,0,1,2.05,3.47,2.79,2.79,0,0,1-2.05,2.1Zm-1.28,0a2.88,2.88,0,0,1-2-3.51,2.82,2.82,0,0,1,2-2.06Z" fill="#fff"/>
	</symbol>
	<symbol id="discover">
		<title>icon-discover-small</title>
		<rect width="26" height="16" rx="2" ry="2" fill="#f19e0c"/>
		<path d="M21.64,8.23h-.19V7.18h.19a.5.5,0,0,1,.59.39.37.37,0,0,1,0,.11.53.53,0,0,1-.47.56Zm1.27-.58a1,1,0,0,0-.93-1,.86.86,0,0,0-.23,0h-.94V10.1h.64V8.7h.07l.86,1.4h.79l-1-1.45a.93.93,0,0,0,.75-1h0ZM18.6,10.1h1.8V9.51H19.24V8.58h1.12V8H19.24V7.22H20.4V6.64H18.6V10.1ZM16.73,9l-.86-2.33h-.68l1.39,3.53h.33L18.3,6.64h-.67L16.73,9ZM9.12,8.39a1.75,1.75,0,0,0,1.69,1.79,2.15,2.15,0,0,0,.82-.2V9.2a1,1,0,0,1-.75.39A1.07,1.07,0,0,1,9.79,8.53V8.42a1.14,1.14,0,0,1,1.05-1.2,1.06,1.06,0,0,1,.79.39V6.83a1.48,1.48,0,0,0-.79-.2A1.66,1.66,0,0,0,9.11,8.21v.17h0ZM8,8c-.37-.16-.48-.23-.48-.43a.42.42,0,0,1,.45-.39h0a.77.77,0,0,1,.52.28L8.78,7a1.44,1.44,0,0,0-.94-.39,1,1,0,0,0-1,.93v0a.89.89,0,0,0,.79.93,3,3,0,0,1,.45.2A.39.39,0,0,1,8.25,9a.49.49,0,0,1-.45.5h0a.73.73,0,0,1-.68-.46l-.41.43a1.27,1.27,0,0,0,1.12.66,1.08,1.08,0,0,0,1.13-1V9c0-.47-.23-.7-1-1ZM5.78,10.1h.64V6.64H5.78V10.1ZM4.51,9.24a1.14,1.14,0,0,1-.87.27H3.46V7.22h.18a1.18,1.18,0,0,1,.87.27,1.23,1.23,0,0,1,.33.86,1.26,1.26,0,0,1-.33.89Zm-.75-2.6H2.82V10.1h.94a1.64,1.64,0,0,0,1.16-.39,1.85,1.85,0,0,0,.6-1.32A1.67,1.67,0,0,0,3.94,6.64Zm9.78-.08a1.74,1.74,0,0,0-1.72,1.78h0a1.8,1.8,0,0,0,1.72,1.82A1.75,1.75,0,0,0,15.3,8.42v0a1.81,1.81,0,0,0-1.76-1.82Z" fill="#fff"/>
	</symbol>
	<symbol id="jbc">
		<title>icon-jcb-small</title>
		<rect width="26" height="16" rx="2" ry="2" fill="#2464b4"/>
		<g id="g6327">
			<path id="path6338" d="M16.44,9.09h1.1a.44.44,0,0,0,.34-.44.44.44,0,0,0-.34-.43h-1.1v.89Z" fill="#fff"/>
			<path id="path6349" d="M17.3,2.91a1.69,1.69,0,0,0-1.69,1.7V6.37h2.56c.54,0,.94.31.94.79a.79.79,0,0,1-.77.77V8c.55,0,1,.35,1,.82s-.47.85-1.08.85H15.6v3.45h2.49a1.69,1.69,0,0,0,1.69-1.7V2.91Z" fill="#fff"/><path id="path6360" d="M17.76,7.28a.4.4,0,0,0-.35-.4h-1v.82h.88s.09,0,.09,0A.39.39,0,0,0,17.76,7.28Z" fill="#fff"/>
		</g>
		<path id="path6371" d="M7.92,2.91a1.69,1.69,0,0,0-1.69,1.7V8.79a3.24,3.24,0,0,0,1.46.38.8.8,0,0,0,.9-.83v-2h1.46v2c0,.76-.48,1.39-2.09,1.39A6.93,6.93,0,0,1,6.22,9.5v3.57H8.71a1.69,1.69,0,0,0,1.69-1.69V2.91Z" fill="#fff"/>
		<path id="path6384" d="M12.61,2.91a1.69,1.69,0,0,0-1.69,1.7V6.83a3.35,3.35,0,0,1,2.37-.55,7.55,7.55,0,0,1,1.34.21v.72a3.27,3.27,0,0,0-1.29-.38c-.91-.06-1.46.39-1.46,1.17s.55,1.24,1.46,1.17a3.45,3.45,0,0,0,1.29-.38v.72a7.36,7.36,0,0,1-1.34.21,3.35,3.35,0,0,1-2.37-.55v3.92h2.49a1.69,1.69,0,0,0,1.69-1.7V2.91Z" fill="#fff"/>
	</symbol>
	<use href="#visa"></use>
	<use href="#mastercard" x="27"></use>
	<use href="#amex" x="54"></use>
	<use href="#dinersclub" x="81"></use>
	<use href="#discover" x="108"></use>
	<use href="#jcb" x="135"></use>
</svg>